<svg width="22" height="21" viewBox="0 0 22 21" fill="none" xmlns="http://www.w3.org/2000/svg">
<path d="M21.725 19.675L17.9875 9.225C17.725 8.5375 17.1375 8.1125 16.4625 8.1125C15.7875 8.1125 15.2125 8.5375 14.925 9.25L11.2 19.675C11.025 20.1625 11.275 20.7 11.7625 20.875C12.25 21.05 12.7875 20.8 12.9625 20.3125L13.7375 18.15H19.175L19.95 20.3125C20.0875 20.7 20.45 20.9375 20.8375 20.9375C20.9375 20.9375 21.05 20.925 21.15 20.8875C21.6375 20.7125 21.8875 20.175 21.7125 19.6875L21.725 19.675ZM14.425 16.2625L16.475 10.525L18.525 16.2625H14.425ZM11.2375 5.275C8.41248 9.7375 5.86249 12.4375 2.76249 14.2375C2.61249 14.325 2.44999 14.3625 2.29999 14.3625C1.97499 14.3625 1.66249 14.2 1.48749 13.9C1.22499 13.45 1.37499 12.875 1.82499 12.625C4.44998 11.1 6.59999 8.9125 9.01249 5.2875H1.14999C0.637494 5.2875 0.212494 4.8625 0.212494 4.35C0.212494 3.8375 0.637494 3.4125 1.14999 3.4125H5.83749V0.9375C5.83749 0.425 6.26249 0 6.77499 0C7.28748 0 7.71249 0.425 7.71249 0.9375V3.4125H12.4C12.9125 3.4125 13.3375 3.8375 13.3375 4.35C13.3375 4.8625 12.9125 5.2875 12.4 5.2875H11.225L11.2375 5.275ZM11.2875 14.3625C11.125 14.3625 10.9625 14.325 10.8125 14.2375C9.99999 13.7625 9.21249 13.2375 8.47498 12.6875C8.06248 12.375 7.97499 11.7875 8.28749 11.375C8.59999 10.9625 9.18749 10.875 9.59999 11.1875C10.275 11.7 11.0125 12.175 11.7625 12.6125C12.2125 12.875 12.3625 13.45 12.1 13.9C11.925 14.2 11.6125 14.3625 11.2875 14.3625Z" fill="url(#paint0_linear_17_272)"/>
<defs>
<linearGradient id="paint0_linear_17_272" x1="10.9904" y1="20.9375" x2="10.9904" y2="2.14497e-08" gradientUnits="userSpaceOnUse">
<stop stop-color="#C70191"/>
<stop offset="1" stop-color="#710D78"/>
</linearGradient>
</defs>
</svg>
