<svg width="28" height="21" viewBox="0 0 28 21" fill="none" xmlns="http://www.w3.org/2000/svg">
<path d="M27.0369 8.10875C27.7859 7.78156 27.7859 6.71844 27.0369 6.39125L15.1269 1.18062C14.7678 1.02312 14.3844 0.945312 14 0.945312C13.6156 0.945312 13.2322 1.02406 12.8731 1.18156L0.963134 6.39125C0.214071 6.71937 0.214071 7.78156 0.963134 8.10875L6.50001 10.5312V13.6438C6.50001 14.7087 7.10188 15.6828 8.05438 16.1591C9.92657 17.0947 11.9628 17.5625 14 17.5625C16.0372 17.5625 18.0734 17.0947 19.9447 16.1591C20.8981 15.6828 21.5 14.7087 21.5 13.6438V10.5312L25.25 8.89063V15.6875C24.7325 15.6875 24.3125 16.1075 24.3125 16.625V19.4375C24.3125 19.955 24.7325 20.375 25.25 20.375H26.1875C26.705 20.375 27.125 19.955 27.125 19.4375V16.625C27.125 16.1075 26.705 15.6875 26.1875 15.6875V8.48L27.0369 8.10875ZM20.5625 13.6438C20.5625 14.3581 20.165 15.0012 19.5256 15.3209C17.8194 16.1741 15.9078 16.625 14 16.625C12.0922 16.625 10.1806 16.1741 8.47438 15.3209C7.83501 15.0012 7.43751 14.3581 7.43751 13.6438V10.9419L12.8731 13.3194C13.2322 13.4769 13.6166 13.5556 14 13.5556C14.3844 13.5556 14.7678 13.4769 15.1269 13.3194L20.5625 10.9409V13.6438ZM14.7519 12.4606C14.5138 12.5647 14.2606 12.6181 14 12.6181C13.7394 12.6181 13.4872 12.5656 13.2481 12.4606L1.33907 7.25L13.2481 2.03937C13.4872 1.93531 13.7394 1.88281 14 1.88281C14.2606 1.88281 14.5128 1.93531 14.7519 2.04031L26.6609 7.25L25.6128 7.70844L14.8381 6.84687C14.6863 6.53281 14.3713 6.3125 14 6.3125C13.4825 6.3125 13.0625 6.7325 13.0625 7.25C13.0625 7.7675 13.4825 8.1875 14 8.1875C14.3159 8.1875 14.5822 8.02063 14.7519 7.78062L23.795 8.50437L14.7519 12.4606Z" fill="url(#paint0_linear_17_270)"/>
<defs>
<linearGradient id="paint0_linear_17_270" x1="14" y1="20.375" x2="14" y2="0.945313" gradientUnits="userSpaceOnUse">
<stop stop-color="#C70191"/>
<stop offset="1" stop-color="#710D78"/>
</linearGradient>
</defs>
</svg>
